

<svg version="1.1" id="레이어_1" xmlns="http://www.w3.org/2000/svg" xmlns:xlink="http://www.w3.org/1999/xlink" x="0px" y="0px" viewBox="0 0 406.5899048 500" style="enable-background:new 0 0 406.5899048 500" xml:space="preserve">
<g>
	<path d="M393.7939758,170.5054321c-2.8790588,2.2392883-54.0626831,30.7101746-54.0626831,95.009613
		c0,74.2162476,64.939209,100.4478455,66.8586121,101.0876465c-0.3199158,1.9193726-10.2367249,35.8285217-34.2290649,71.0172729
		c-21.1132507,30.7101746-43.8259583,61.7402344-77.7351074,61.7402344s-42.8663025-20.1535339-81.8938141-20.1535339
		c-38.3877106,0-51.82341,20.793335-82.8534851,20.793335s-52.7831039-28.790802-77.7351227-63.6596375
		C23.3525276,395.0735779,0,331.4139404,0,270.6333923c0-96.9289703,63.0198326-148.7523956,125.3998718-148.7523956
		c32.9494629,0,60.4606476,21.7530365,81.2539978,21.7530365c19.5137634,0,50.223938-23.0326233,87.9718628-23.0326233
		C309.0211182,120.6014099,360.2047424,121.8809967,393.7939758,170.5054321z M209.2130585,115.163147
		c-2.5591888,0-5.1183624-0.3199005-6.7178497-0.6397934c-0.3199005-1.2795944-0.9597015-5.1183624-0.9597015-8.9571381
		c0-25.911705,13.115799-51.5035172,27.5112-67.8182983C246.960968,16.634676,277.3512573,0.9596929,302.3032532,0
		c0.639801,2.8790786,0.9597168,6.3979526,0.9597168,9.9168262c0,25.5918102-10.8765259,51.1836243-26.2316284,69.7376862
		C260.3966675,100.1279602,231.9257812,115.163147,209.2130585,115.163147z"></path>
</g>
<g>
</g>
<g>
</g>
<g>
</g>
<g>
</g>
<g>
</g>
<g>
</g>
</svg>
